<?xml version="1.0" encoding="utf-8"?>
<!-- Generator: Adobe Illustrator 25.0.0, SVG Export Plug-In . SVG Version: 6.00 Build 0)  -->
<svg version="1.1" id="Layer_1" xmlns="http://www.w3.org/2000/svg" xmlns:xlink="http://www.w3.org/1999/xlink" x="0px" y="0px"
	 viewBox="0 0 1197.6 1194.28" style="enable-background:new 0 0 1197.6 1194.28;" xml:space="preserve">
<style type="text/css">
	.st0{fill:url(#SVGID_1_);}
	.st1{opacity:0.8;}
	.st2{fill:#193C35;}
	.st3{fill:#FFFFFF;}
</style>
<g>
	
		<radialGradient id="SVGID_1_" cx="2489.7502" cy="4894.2812" r="748.6135" gradientTransform="matrix(0.7071 0.7071 -0.7071 0.7071 2574.2866 -4754.665)" gradientUnits="userSpaceOnUse">
		<stop  offset="0.1362" style="stop-color:#D4D427"/>
		<stop  offset="0.5304" style="stop-color:#5A9C32"/>
		<stop  offset="0.6806" style="stop-color:#457F61"/>
		<stop  offset="0.8169" style="stop-color:#346884"/>
		<stop  offset="0.928" style="stop-color:#2B5B9A"/>
		<stop  offset="1" style="stop-color:#2756A2"/>
	</radialGradient>
	<path class="st0" d="M460.24,1124.63L64.39,728.77c-74.04-74.04-74.04-195.21,0-269.25L460.24,63.67
		c74.04-74.04,195.21-74.04,269.25,0l395.85,395.85c74.04,74.04,74.04,195.21,0,269.25l-395.85,395.85
		C655.45,1198.67,534.28,1198.67,460.24,1124.63z"/>
	<g>
		<g class="st1">
			<path class="st2" d="M349.13,395.81v32.17h-26.58v-32.17H349.13z M349.13,475.08v247.14h-26.58V475.08H349.13z"/>
			<path class="st2" d="M410.21,475.08h26.11v36.37h2.33c9.79-27.98,33.57-41.03,75.07-41.03h2.33c59.22,0,98.85,25.65,98.85,117.97
				v20.52c0,92.33-39.63,117.97-98.85,117.97h-2.33c-41.5,0-65.28-13.06-75.07-41.03h-2.33v115.64h-26.11V475.08z M436.33,593.99
				v8.86c0,91.39,34.97,100.72,76.01,100.72c41.03,0,76.01-9.33,76.01-100.72v-8.39c0-91.39-34.97-100.72-76.01-100.72
				C471.3,493.73,436.33,503.06,436.33,593.99z"/>
			<path class="st2" d="M762.73,726.88c-63.42,0-100.25-28.44-100.25-118.91v-18.65c0-90.46,36.84-118.91,100.25-118.91h4.2
				c63.42,0,100.25,28.44,100.25,118.91v18.65c0,90.46-36.84,118.91-100.25,118.91H762.73z M841.06,602.85v-8.39
				c0-91.39-35.44-100.72-76.01-100.72c-41.03,0-76.01,9.33-76.01,100.72v8.39c0,91.39,34.97,100.72,76.01,100.72
				C805.63,703.57,841.06,694.24,841.06,602.85z"/>
		</g>
		<g>
			<path class="st3" d="M349.13,386.81v32.17h-26.58v-32.17H349.13z M349.13,466.08v247.14h-26.58V466.08H349.13z"/>
			<path class="st3" d="M410.21,466.08h26.11v36.37h2.33c9.79-27.98,33.57-41.03,75.07-41.03h2.33c59.22,0,98.85,25.65,98.85,117.97
				v20.52c0,92.33-39.63,117.97-98.85,117.97h-2.33c-41.5,0-65.28-13.06-75.07-41.03h-2.33v115.64h-26.11V466.08z M436.33,584.99
				v8.86c0,91.39,34.97,100.72,76.01,100.72c41.03,0,76.01-9.33,76.01-100.72v-8.39c0-91.39-34.97-100.72-76.01-100.72
				C471.3,484.73,436.33,494.06,436.33,584.99z"/>
			<path class="st3" d="M762.73,717.88c-63.42,0-100.25-28.44-100.25-118.91v-18.65c0-90.46,36.84-118.91,100.25-118.91h4.2
				c63.42,0,100.25,28.44,100.25,118.91v18.65c0,90.46-36.84,118.91-100.25,118.91H762.73z M841.06,593.85v-8.39
				c0-91.39-35.44-100.72-76.01-100.72c-41.03,0-76.01,9.33-76.01,100.72v8.39c0,91.39,34.97,100.72,76.01,100.72
				C805.63,694.57,841.06,685.24,841.06,593.85z"/>
		</g>
	</g>
</g>
</svg>
